<?xml version="1.0" encoding="UTF-8" standalone="no"?>
<svg
   xmlns:dc="http://purl.org/dc/elements/1.1/"
   xmlns:cc="http://creativecommons.org/ns#"
   xmlns:rdf="http://www.w3.org/1999/02/22-rdf-syntax-ns#"
   xmlns:svg="http://www.w3.org/2000/svg"
   xmlns="http://www.w3.org/2000/svg"
   xmlns:sodipodi="http://sodipodi.sourceforge.net/DTD/sodipodi-0.dtd"
   xmlns:inkscape="http://www.inkscape.org/namespaces/inkscape"
   width="500"
   height="500"
   viewBox="0 0 132.29166 132.29167"
   version="1.1"
   id="svg8"
   inkscape:version="1.0.1 (3bc2e813f5, 2020-09-07)"
   sodipodi:docname="logo.svg">
  <defs
     id="defs2" />
  <sodipodi:namedview
     id="base"
     pagecolor="#ffffff"
     bordercolor="#666666"
     borderopacity="1.0"
     inkscape:pageopacity="0.0"
     inkscape:pageshadow="2"
     inkscape:zoom="1"
     inkscape:cx="193.44132"
     inkscape:cy="246.16277"
     inkscape:document-units="mm"
     inkscape:current-layer="layer1"
     inkscape:document-rotation="0"
     showgrid="true"
     units="px"
     inkscape:window-width="1600"
     inkscape:window-height="837"
     inkscape:window-x="-8"
     inkscape:window-y="-8"
     inkscape:window-maximized="1">
    <inkscape:grid
       type="xygrid"
       id="grid1027"
       spacingx="0.66145833"
       spacingy="0.66145833" />
  </sodipodi:namedview>
  <metadata
     id="metadata5">
    <rdf:RDF>
      <cc:Work
         rdf:about="">
        <dc:format>image/svg+xml</dc:format>
        <dc:type
           rdf:resource="http://purl.org/dc/dcmitype/StillImage" />
        <dc:title />
      </cc:Work>
    </rdf:RDF>
  </metadata>
  <g
     inkscape:label="Layer 1"
     inkscape:groupmode="layer"
     id="layer1">
    <rect
       style="fill:#ff8900;fill-opacity:0;stroke:#00fff8;stroke-width:0;stroke-miterlimit:4;stroke-dasharray:none;stroke-opacity:1"
       id="rect1015"
       width="65.462669"
       height="67.586708"
       x="35.604561"
       y="36.824642" />
    <path
       style="fill:#52627b;fill-opacity:1;stroke:#52627b;stroke-width:0.300011;stroke-linecap:butt;stroke-linejoin:miter;stroke-miterlimit:4;stroke-dasharray:none;stroke-opacity:1"
       d="m 20.330434,22.238668 c 0,0 8.611925,-0.875158 23.990361,-4.521651 15.378437,-3.646493 22.144949,-6.417828 22.144949,-6.417828 0,0 13.379239,3.354775 24.913066,7.001267 11.53383,3.646493 21.22224,3.938211 21.22224,3.938211 V 95.168529 C 93.525646,112.50192 78.983072,114.75749 66.465744,120.69397 52.171012,114.06277 42.685077,115.76176 20.330434,95.168529 Z"
       id="path1033"
       sodipodi:nodetypes="cscsccccc" />
    <path
       style="fill:none;stroke:#000000;stroke-width:3.50956;stroke-linecap:square;stroke-linejoin:round;stroke-miterlimit:4;stroke-dasharray:none;stroke-opacity:1;paint-order:markers stroke fill"
       d="m 12.641224,14.945682 26.912256,-3.646494 26.912264,-7.292986 23.067655,7.292986 30.756871,3.646494 v 83.86934 C 104.24695,113.85056 83.542946,121.08279 66.465752,127.90627 46.804614,121.13483 27.767028,113.14281 12.641224,97.493803 Z"
       id="path1031"
       sodipodi:nodetypes="ccccccccc"
       inkscape:transform-center-x="0.92270371"
       inkscape:transform-center-y="-0.08127289" />
    <path
       style="fill:none;stroke:#000000;stroke-width:0.299539px;stroke-linecap:butt;stroke-linejoin:miter;stroke-opacity:1"
       d="M 20.330434,65.996583 H 112.60105"
       id="path1051" />
    <path
       style="fill:none;stroke:#000000;stroke-width:0.299539px;stroke-linecap:butt;stroke-linejoin:miter;stroke-opacity:1"
       d="M 66.465744,11.299188 V 120.69397"
       id="path1053" />
    <path
       style="fill:none;stroke:#000000;stroke-width:0.299539px;stroke-linecap:butt;stroke-linejoin:miter;stroke-opacity:1"
       d="m 66.465744,122.15257 v -2.18789"
       id="path1191" />
    <path
       style="fill:#483737;fill-opacity:1;stroke:#483737;stroke-width:0.0187507;stroke-linecap:square;stroke-linejoin:round;stroke-miterlimit:4;stroke-dasharray:none;stroke-opacity:1;paint-order:markers stroke fill"
       d="m 55.834898,110.97227 c -0.01322,0.64207 0.0041,1.28903 0.0028,1.93298 0.0065,1.29284 0.01289,2.58568 0.01935,3.87852 0.07825,0.0743 0.217648,0.0816 0.31926,0.1298 3.13586,1.05729 6.264375,2.15172 9.275128,3.50269 0.28535,0.12126 0.564795,0.26484 0.852375,0.37497 0.05882,-0.0738 0.0079,-0.2049 0.02519,-0.29986 0.0062,-3.18249 0.0043,-6.36499 0.0034,-9.54749 -0.07277,-0.0682 -0.218967,-0.009 -0.319235,-0.0279 -3.384797,0.0152 -6.769591,0.0304 -10.154388,0.0456 l -0.01735,0.008 z"
       id="path1201" />
    <path
       style="fill:#483737;fill-opacity:1;stroke:#483737;stroke-width:0.0750028;stroke-linecap:square;stroke-linejoin:round;stroke-miterlimit:4;stroke-dasharray:none;stroke-opacity:1;paint-order:markers stroke fill"
       d="m 27.210694,80.930901 c 0.04149,6.832617 0.05336,13.671668 0.113342,20.500269 4.991207,4.00266 10.293351,7.71327 16.143244,10.51441 3.925653,1.90853 8.057008,3.4068 12.224319,4.76224 0.189517,-0.18127 0.06069,-0.55158 0.113929,-0.79449 0.01833,-1.65365 -0.0065,-3.30741 -0.01003,-4.9611 3.494798,-0.0157 6.9896,-0.0314 10.484402,-0.047 0.06926,-1.93052 0.0055,-3.91305 0.02359,-5.86358 0.0048,-8.095231 -0.05653,-16.190968 0.04143,-24.285847 -1.957998,-0.06036 -3.972023,0.008 -5.951566,-0.0029 -11.050674,0.04957 -22.101348,0.09914 -33.152025,0.148718 z"
       id="path1203" />
    <path
       style="fill:#483737;fill-opacity:1;stroke:#483737;stroke-width:0.21214;stroke-linecap:square;stroke-linejoin:round;stroke-miterlimit:4;stroke-dasharray:none;stroke-opacity:1;paint-order:markers stroke fill"
       d="m 20.256873,66.109149 c 0.232917,9.460511 0.02921,18.924555 0.07825,28.384378 -0.0917,1.195125 1.418308,1.56036 1.995324,2.432263 1.049239,1.175034 2.350276,2.073557 3.533856,3.07339 0.30091,0.18491 0.795696,1.01251 1.140354,0.73176 0.357752,-6.625499 0.04165,-13.27728 0.09738,-19.912407 13.044568,-0.07786 26.123307,-0.07852 39.146527,-0.204615 -0.04442,-4.818645 -0.0074,-9.669694 -0.102731,-14.468085 -15.291588,0.05984 -30.620525,0.20007 -45.888956,-0.03668 z"
       id="path1205" />
    <path
       style="fill:#483737;fill-opacity:1;stroke:#483737;stroke-width:0.150005;stroke-linecap:square;stroke-linejoin:round;stroke-miterlimit:4;stroke-dasharray:none;stroke-opacity:1;paint-order:markers stroke fill"
       d="m 66.75552,20.217775 c -0.234672,3.678634 -0.06214,7.377853 -0.12675,11.064093 0.012,11.488711 -0.01928,23.008032 0.0613,34.477419 15.309024,0.08391 30.619022,0.03888 45.9284,0.08569 0.1774,-14.516867 0.0905,-29.086675 0.0177,-43.623733 -4.59442,-0.481621 -9.24223,-0.974247 -13.755068,-2.033468 -2.03041,-0.313093 -4.1285,-0.03132 -6.185342,-0.112007 -8.643229,0.05588 -17.314206,0.04348 -25.94018,0.142006 z"
       id="path1207" />
    <path
       style="fill:#483737;fill-opacity:1;stroke:#483737;stroke-width:0.10607;stroke-linecap:square;stroke-linejoin:round;stroke-miterlimit:4;stroke-dasharray:none;stroke-opacity:1;paint-order:markers stroke fill"
       d="m 66.767318,11.279536 c -0.250552,0.485666 -0.07694,1.13626 -0.144834,1.675643 0.01021,2.379193 -0.02482,4.790388 0.05461,7.149036 10.275982,-0.05013 20.551964,-0.100253 30.827938,-0.15038 -0.85412,-0.367775 -1.992767,-0.549298 -2.956478,-0.858113 -6.218511,-1.830515 -12.404939,-3.766052 -18.676386,-5.433273 -3.02945,-0.810989 -6.053537,-1.654066 -9.10485,-2.382913 z"
       id="path1209" />
    <path
       style="fill:#483737;fill-opacity:1;stroke:#483737;stroke-width:0.21214;stroke-linecap:square;stroke-linejoin:round;stroke-miterlimit:4;stroke-dasharray:none;stroke-opacity:1;paint-order:markers stroke fill"
       d="m 52.874678,6.0334195 c -4.835005,1.2333539 -9.604498,2.758165 -14.480735,3.8080575 -8.856039,1.280313 -17.780927,2.21327 -26.57636,3.824329 -1.400913,0.865032 -0.515207,2.70273 -0.790978,4.000898 -0.125282,26.535211 -0.168363,53.072351 0.05892,79.606976 0.0025,1.562321 1.770283,2.467334 2.671085,3.60404 9.827012,9.52199 22.004679,16.53504 34.782758,21.90689 5.872117,2.42894 11.785735,4.85661 17.903468,6.65807 8.210123,-2.88556 16.254171,-6.2205 24.171494,-9.76946 11.23871,-5.15969 22.11892,-11.43026 30.92748,-19.910376 0.84338,-1.060048 0.1841,-2.652039 0.39525,-3.935903 0.0252,-27.081039 0.0605,-54.162072 0.10906,-81.243086 -0.68487,-1.307505 -2.08056,-1.351377 -3.44453,-1.452007 C 108.96739,11.960232 99.307992,10.893988 89.689533,9.6563049 81.957661,7.2184218 74.225884,4.7802753 66.494194,2.3418915 61.954356,3.5724008 57.414516,4.8029104 52.874678,6.0334195 Z m 24.864318,3.22438 c 3.992316,1.1812955 7.910206,2.6730385 11.949875,3.6568155 9.587091,1.174729 19.197369,2.204703 28.761859,3.530197 0.23966,27.196917 0.10778,54.397272 0.15882,81.595565 -5.1471,5.017903 -11.2718,9.054673 -17.52878,12.728013 -10.929561,6.21347 -22.782845,10.77147 -34.55442,15.31946 -1.857561,-0.23052 -3.614428,-1.27399 -5.430114,-1.80618 -15.732675,-5.6464 -31.188355,-12.9458 -43.377635,-24.15458 -1.094079,-1.131871 -2.595171,-2.104493 -3.422619,-3.345144 0.03741,-26.818314 0.01069,-53.636913 0.117097,-80.455018 8.40574,-1.196043 16.853346,-2.184725 25.243295,-3.441843 8.926767,-2.402141 17.853466,-4.804491 26.780117,-7.2070148 3.767504,1.1932431 7.535006,2.3864862 11.302505,3.5797293 z"
       id="path1211" />
    <path
       style="fill:#ffffff;fill-opacity:1;stroke:#ffffff;stroke-width:0.264583px;stroke-linecap:butt;stroke-linejoin:miter;stroke-opacity:1"
       d="m 39.6875,41.010416 6.614584,19.843749 3.307291,-19.843749 z"
       id="path1213" />
    <path
       style="fill:#ffffff;fill-opacity:1;stroke:#ffffff;stroke-width:0.264583px;stroke-linecap:butt;stroke-linejoin:miter;stroke-opacity:1"
       d="m 47.625,39.6875 c -6.614583,-3.307292 -3.307292,-3.307292 -6.614583,-3.307292 -3.307292,0 6.614583,-9.921875 6.614583,-9.921875 0,0 -3.307292,3.307292 0,6.614583 3.307291,3.307292 0,6.614584 0,6.614584 z"
       id="path1215" />
    <ellipse
       style="fill:#ffffff;fill-opacity:1;stroke:#ffffff;stroke-width:0.317595;stroke-linecap:square;stroke-linejoin:round;stroke-miterlimit:4;stroke-dasharray:none;stroke-opacity:1;paint-order:markers stroke fill"
       id="path1217"
       ry="0.93585253"
       rx="2.0145571"
       cy="18.046289"
       cx="55.203495"
       transform="matrix(0.91364937,0.40650317,-0.46002477,0.88790608,0,0)"
       inkscape:transform-center-x="0.14958022"
       inkscape:transform-center-y="-0.13861577" />
    <rect
       style="fill:#483737;fill-opacity:1;stroke:#483737;stroke-width:0.264583;stroke-opacity:1"
       id="rect887"
       width="2.6458333"
       height="17.859375"
       x="76.729164"
       y="76.067711" />
    <rect
       style="fill:#483737;fill-opacity:1;stroke:#483737;stroke-width:0.26787;stroke-opacity:1"
       id="rect928"
       width="27.119791"
       height="1.984375"
       x="76.729164"
       y="92.604164" />
    <rect
       style="fill:#483737;fill-opacity:1;stroke:#483737;stroke-width:0.264583;stroke-opacity:1"
       id="rect887-5"
       width="2.6458333"
       height="17.859375"
       x="101.20312"
       y="76.067711" />
    <path
       style="fill:#ffffff;stroke:#ffffff;stroke-width:0.333721px;stroke-linecap:butt;stroke-linejoin:miter;stroke-opacity:1;fill-opacity:1"
       d="M 90.752082,76.729167 101.86458,75.225853 V 93.265625 H 90.752082 78.713541 V 75.225853 Z"
       id="path58" />
    <path
       style="fill:#000000;fill-opacity:1;stroke:#52627b;stroke-width:1.04005px;stroke-linecap:butt;stroke-linejoin:miter;stroke-opacity:1"
       d="m 90.619791,76.067708 c 0,5.775851 10e-6,13.413068 0,17.197917"
       id="path60"
       sodipodi:nodetypes="cc" />
    <path
       style="fill:#ff2a2a;stroke:#483737;stroke-width:0.707107"
       d="m 360.12321,75.19112 c -35.80282,0.0017 -71.60847,0.104583 -107.40766,0.650046 -2.28419,2.965119 -0.55499,8.194752 -1.28476,12.014669 -0.92547,44.767695 -0.39578,89.554135 -0.33696,134.328365 0.34011,9.04254 -0.24535,18.32954 0.76938,27.21769 54.3724,-0.51263 109.00798,0.76721 163.48308,0.31093 3.6553,-0.24615 7.51498,0.45455 11.04415,-0.29778 0.42735,-28.88269 0.10969,-57.93843 0.29591,-86.88872 -0.23156,-26.05254 0.33411,-52.15186 -0.60991,-78.175836 -3.23917,-2.065519 -7.84261,-1.369302 -11.58508,-2.272849 -14.21797,-1.446359 -28.23788,-4.098511 -42.28907,-6.496587 -4.01702,-0.32586 -8.05164,-0.338258 -12.07908,-0.389928 z"
       id="path976"
       transform="scale(0.26458333)" />
    <path
       style="fill:#ff2a2a;stroke:#ff2a2a;stroke-width:0.707107;stroke-opacity:1"
       d="m 250.97635,42.758146 c -0.11832,10.863829 0.57919,21.870751 0.0731,32.809224 2.2889,2.241812 6.8468,0.47065 10.05724,0.981465 35.52003,-0.440269 71.04751,-0.786137 106.5689,-0.314513 2.81662,-2.880991 -4.72486,-2.762762 -6.72457,-3.834831 C 325.36565,62.266287 290.05029,50.9 253.99284,42.487442 c -1.01064,-0.04349 -2.12353,-0.331243 -3.01649,0.270704 z"
       id="path980"
       transform="scale(0.26458333)" />
    <path
       style="fill:#ff8080;stroke:#483737;stroke-width:0.707107"
       d="m 235.77375,248.8892 c -49.5192,0.52956 -99.04962,0.71649 -148.56382,-0.1293 -3.743323,0.21391 -7.7546,-0.16094 -11.30102,0.92462 -0.02528,36.40287 -0.05513,72.93169 0.146633,109.37741 5.573902,7.19777 13.109228,12.8271 19.84527,18.95524 1.953523,1.05782 3.872391,4.49841 6.386007,3.37034 -0.0523,4.06918 5.38386,5.36087 7.71659,8.15064 28.6182,23.03387 61.9272,39.59797 96.70588,51.09427 5.21802,1.34537 10.15815,3.54683 15.6605,5.4501 9.37028,3.16311 18.48358,7.3079 27.75867,10.53012 2.38307,-2.22802 0.822,-6.47453 1.37928,-9.43967 -0.0994,-12.82732 -0.34949,-25.52754 -0.0866,-38.20518 -0.46987,-40.5275 -0.0298,-81.15067 -0.14645,-121.56204 -0.417,-12.80411 0.48553,-25.83868 -0.54576,-38.49672 -4.89713,-0.45009 -9.99671,0.0595 -14.95521,-0.0198 z"
       id="path982"
       transform="scale(0.26458333)" />
    <path
       style="fill:#ff2a2a;stroke:#ff2a2a;stroke-width:1.41421;stroke-opacity:1"
       d="m 349.29642,76.278322 c -32.22938,-0.181987 -64.46087,0.275364 -96.68959,-0.158962 -2.47732,10.297784 -0.41152,22.51148 -1.20154,33.52083 0.11357,46.26431 -1.45286,92.57994 0.6173,138.81292 15.88834,2.23693 33.41145,0.40073 49.93075,1.06327 41.20176,0.0953 82.40367,0.0449 123.60531,-0.0774 2.34819,-14.12272 0.40717,-30.02766 1.10055,-44.83797 0.0928,-39.96074 0.0949,-79.92402 -0.57999,-119.88039 -16.89646,-4.721245 -35.67735,-6.143025 -53.52057,-7.672895 -7.74512,-0.474901 -15.50425,-0.664128 -23.26222,-0.769393 z"
       id="path984"
       transform="scale(0.26458333)" />
    <path
       style="fill:#ff2a2a;stroke:#ff2a2a;stroke-width:1.41421;stroke-opacity:1"
       d="m 241.39452,249.03593 c -52.85085,0.4946 -105.70574,-0.0649 -158.551436,-0.12562 -9.194022,-1.42964 -6.920288,8.58281 -6.953784,14.76277 0.667835,31.99706 -1.433236,64.2131 1.552372,96.08396 10.019293,12.69585 24.067268,21.30086 35.804058,32.26315 33.38355,25.40835 72.48687,41.63295 111.82464,55.34993 8.20881,2.29528 16.43934,7.63277 24.83534,7.98111 2.75699,-13.70879 0.65115,-28.42213 1.39761,-42.46669 -0.31548,-54.28003 0.59996,-108.61126 -0.87463,-162.85977 -2.1364,-2.04821 -6.36786,-0.29047 -9.03417,-0.98884 z"
       id="path986"
       transform="scale(0.26458333)" />
  </g>
</svg>
